M48
;Layer_Color=6321
;FILE_FORMAT=2:5
INCH,LZ
;TYPE=PLATED
T1F00S00C0.04000
%
T01
X05515Y0209
Y0219
Y0229
Y0239
X0543Y02865
X0533
X0523
X0513
X0503
X0493
X0503Y03865
X0513
X0523
X0533
X0545Y04195
Y04295
Y04395
Y04495
Y04595
X0485
Y04495
Y04395
Y04295
Y04195
Y04695
Y04795
X0545
Y04695
M30
