G04*
G04 #@! TF.GenerationSoftware,Altium Limited,CircuitMaker,2.2.1 (6)*
G04*
G04 Layer_Physical_Order=2*
G04 Layer_Color=11436288*
%FSLAX25Y25*%
%MOIN*%
G70*
G04*
G04 #@! TF.SameCoordinates,563EFCBF-3155-4DB8-BDB2-99B1944089B0*
G04*
G04*
G04 #@! TF.FilePolarity,Positive*
G04*
G01*
G75*
%ADD10C,0.02000*%
%ADD11C,0.01000*%
%ADD12C,0.07000*%
%ADD13P,0.07577X8X202.5*%
%ADD14R,0.12000X0.06000*%
%ADD15O,0.07000X0.07874*%
%ADD16R,0.07087X0.07087*%
%ADD17C,0.07087*%
G36*
X558966Y488500D02*
X559569Y487371D01*
X560382Y486382D01*
X561371Y485569D01*
X562500Y484966D01*
X563471Y484671D01*
Y197328D01*
X562500Y197034D01*
X561371Y196431D01*
X560382Y195618D01*
X559569Y194629D01*
X558966Y193500D01*
X558672Y192529D01*
X471328D01*
X471034Y193500D01*
X470431Y194629D01*
X469618Y195618D01*
X468629Y196431D01*
X467499Y197034D01*
X466529Y197328D01*
Y484671D01*
X467499Y484966D01*
X468629Y485569D01*
X469618Y486382D01*
X470431Y487371D01*
X471034Y488500D01*
X471328Y489471D01*
X558672D01*
X558966Y488500D01*
D02*
G37*
%LPC*%
G36*
X545592Y484000D02*
X544408D01*
X543263Y483693D01*
X542237Y483101D01*
X541399Y482263D01*
X540807Y481237D01*
X540500Y480092D01*
Y478908D01*
X540807Y477763D01*
X541399Y476737D01*
X542237Y475899D01*
X543263Y475307D01*
X544408Y475000D01*
X545592D01*
X546737Y475307D01*
X547763Y475899D01*
X548601Y476737D01*
X549193Y477763D01*
X549500Y478908D01*
Y480092D01*
X549193Y481237D01*
X548601Y482263D01*
X547763Y483101D01*
X546737Y483693D01*
X545592Y484000D01*
D02*
G37*
G36*
X485592D02*
X484408D01*
X483263Y483693D01*
X482237Y483101D01*
X481399Y482263D01*
X480807Y481237D01*
X480500Y480092D01*
Y478908D01*
X480807Y477763D01*
X481399Y476737D01*
X482237Y475899D01*
X483263Y475307D01*
X484408Y475000D01*
X485592D01*
X486737Y475307D01*
X487763Y475899D01*
X488601Y476737D01*
X489193Y477763D01*
X489500Y478908D01*
Y480092D01*
X489193Y481237D01*
X488601Y482263D01*
X487763Y483101D01*
X486737Y483693D01*
X485592Y484000D01*
D02*
G37*
G36*
X545592Y474000D02*
X544408D01*
X543263Y473693D01*
X542237Y473101D01*
X541399Y472263D01*
X540807Y471237D01*
X540500Y470092D01*
Y468908D01*
X540716Y468100D01*
X501558Y428942D01*
X501116Y428280D01*
X500961Y427500D01*
Y390963D01*
X500731Y390868D01*
X499791Y390146D01*
X499069Y389206D01*
X498616Y388112D01*
X498461Y386937D01*
Y386063D01*
X498616Y384888D01*
X499069Y383794D01*
X499791Y382854D01*
X500731Y382132D01*
X500961Y382037D01*
Y342500D01*
X501116Y341720D01*
X501558Y341058D01*
X549461Y293155D01*
Y243543D01*
X546957D01*
Y234457D01*
X555581D01*
X555866Y234457D01*
X556094Y233978D01*
X554521Y232404D01*
X554290Y232635D01*
X553254Y233234D01*
X552098Y233543D01*
X550902D01*
X549746Y233234D01*
X548710Y232635D01*
X547864Y231790D01*
X547266Y230754D01*
X546957Y229598D01*
Y228402D01*
X547266Y227246D01*
X547864Y226210D01*
X548710Y225364D01*
X549746Y224766D01*
X550902Y224457D01*
X552098D01*
X553254Y224766D01*
X554290Y225364D01*
X555135Y226210D01*
X555734Y227246D01*
X555955Y228071D01*
X560942Y233058D01*
X560942Y233058D01*
X561384Y233720D01*
X561539Y234500D01*
Y329500D01*
X561384Y330280D01*
X560942Y330942D01*
X535039Y356845D01*
Y382037D01*
X535269Y382132D01*
X536209Y382854D01*
X536931Y383794D01*
X537384Y384888D01*
X537539Y386063D01*
Y386937D01*
X537384Y388112D01*
X536931Y389206D01*
X536209Y390146D01*
X535269Y390868D01*
X535039Y390963D01*
Y393155D01*
X556942Y415058D01*
X556942Y415058D01*
X557384Y415720D01*
X557539Y416500D01*
X557539Y416500D01*
Y449000D01*
X557384Y449780D01*
X556942Y450442D01*
X549284Y458100D01*
X549500Y458908D01*
Y460092D01*
X549193Y461237D01*
X548601Y462263D01*
X547763Y463101D01*
X546737Y463693D01*
X545592Y464000D01*
X544408D01*
X543263Y463693D01*
X542237Y463101D01*
X541399Y462263D01*
X540807Y461237D01*
X540500Y460092D01*
Y458908D01*
X540807Y457763D01*
X541399Y456737D01*
X542237Y455899D01*
X543263Y455307D01*
X544408Y455000D01*
X545592D01*
X546400Y455216D01*
X553461Y448155D01*
Y417345D01*
X531558Y395442D01*
X531116Y394780D01*
X530961Y394000D01*
Y390963D01*
X530731Y390868D01*
X529791Y390146D01*
X529069Y389206D01*
X528616Y388112D01*
X528461Y386937D01*
Y386063D01*
X528616Y384888D01*
X529069Y383794D01*
X529791Y382854D01*
X530731Y382132D01*
X530961Y382037D01*
Y356000D01*
X531116Y355220D01*
X531558Y354558D01*
X557461Y328655D01*
Y235345D01*
X556522Y234406D01*
X556043Y234634D01*
X556043Y234883D01*
Y243543D01*
X553539D01*
Y294000D01*
X553384Y294780D01*
X552942Y295442D01*
X505039Y343345D01*
Y382037D01*
X505269Y382132D01*
X506209Y382854D01*
X506931Y383794D01*
X507384Y384888D01*
X507539Y386063D01*
Y386937D01*
X507384Y388112D01*
X506931Y389206D01*
X506209Y390146D01*
X505269Y390868D01*
X505039Y390963D01*
Y426655D01*
X543600Y465216D01*
X544408Y465000D01*
X545592D01*
X546737Y465307D01*
X547763Y465899D01*
X548601Y466737D01*
X549193Y467763D01*
X549500Y468908D01*
Y470092D01*
X549193Y471237D01*
X548601Y472263D01*
X547763Y473101D01*
X546737Y473693D01*
X545592Y474000D01*
D02*
G37*
G36*
X485592D02*
X484408D01*
X483263Y473693D01*
X482237Y473101D01*
X481399Y472263D01*
X480807Y471237D01*
X480500Y470092D01*
Y468908D01*
X480807Y467763D01*
X481399Y466737D01*
X482237Y465899D01*
X483263Y465307D01*
X484408Y465000D01*
X485592D01*
X486737Y465307D01*
X487763Y465899D01*
X488601Y466737D01*
X488730Y466961D01*
X489230Y466827D01*
Y462173D01*
X488730Y462039D01*
X488601Y462263D01*
X487763Y463101D01*
X486737Y463693D01*
X485592Y464000D01*
X484408D01*
X483263Y463693D01*
X482237Y463101D01*
X481399Y462263D01*
X480807Y461237D01*
X480500Y460092D01*
Y458908D01*
X480807Y457763D01*
X481399Y456737D01*
X482237Y455899D01*
X483263Y455307D01*
X484408Y455000D01*
X485592D01*
X486737Y455307D01*
X487763Y455899D01*
X488601Y456737D01*
X488730Y456961D01*
X489230Y456827D01*
Y452173D01*
X488730Y452039D01*
X488601Y452263D01*
X487763Y453101D01*
X486737Y453693D01*
X485592Y454000D01*
X484408D01*
X483263Y453693D01*
X482237Y453101D01*
X481399Y452263D01*
X480807Y451237D01*
X480500Y450092D01*
Y448908D01*
X480807Y447763D01*
X481399Y446737D01*
X482237Y445899D01*
X483263Y445307D01*
X484408Y445000D01*
X485592D01*
X486737Y445307D01*
X487763Y445899D01*
X488601Y446737D01*
X488730Y446961D01*
X489230Y446827D01*
Y442173D01*
X488730Y442039D01*
X488601Y442263D01*
X487763Y443101D01*
X486737Y443693D01*
X485592Y444000D01*
X484408D01*
X483263Y443693D01*
X482237Y443101D01*
X481399Y442263D01*
X480807Y441237D01*
X480500Y440092D01*
Y438908D01*
X480716Y438100D01*
X468558Y425942D01*
X468116Y425280D01*
X467961Y424500D01*
Y243000D01*
X468116Y242220D01*
X468558Y241558D01*
X502558Y207558D01*
X503220Y207116D01*
X504000Y206961D01*
X547431D01*
X547864Y206210D01*
X548710Y205364D01*
X549746Y204766D01*
X550902Y204457D01*
X552098D01*
X553254Y204766D01*
X554290Y205364D01*
X555135Y206210D01*
X555734Y207246D01*
X556043Y208402D01*
Y209598D01*
X555734Y210754D01*
X555135Y211790D01*
X554290Y212635D01*
X553254Y213234D01*
X552098Y213543D01*
X550902D01*
X549746Y213234D01*
X548710Y212635D01*
X547864Y211790D01*
X547431Y211039D01*
X504845D01*
X472039Y243845D01*
Y423655D01*
X483600Y435216D01*
X484408Y435000D01*
X485592D01*
X486737Y435307D01*
X487763Y435899D01*
X488601Y436737D01*
X489193Y437763D01*
X489500Y438908D01*
Y440092D01*
X489466Y440220D01*
X489739Y440455D01*
X489895Y440551D01*
X490250Y440480D01*
X505750D01*
X506140Y440558D01*
X506471Y440779D01*
X506692Y441110D01*
X506770Y441500D01*
Y467000D01*
X506692Y467390D01*
X506471Y467721D01*
X506140Y467942D01*
X505750Y468020D01*
X490250D01*
X489860Y467942D01*
X489737Y467860D01*
X489303Y468171D01*
X489500Y468908D01*
Y470092D01*
X489193Y471237D01*
X488601Y472263D01*
X487763Y473101D01*
X486737Y473693D01*
X485592Y474000D01*
D02*
G37*
G36*
X545592Y454000D02*
X544408D01*
X543263Y453693D01*
X542237Y453101D01*
X541399Y452263D01*
X540807Y451237D01*
X540500Y450092D01*
Y448908D01*
X540807Y447763D01*
X541399Y446737D01*
X542237Y445899D01*
X543263Y445307D01*
X544408Y445000D01*
X545592D01*
X546737Y445307D01*
X547763Y445899D01*
X548601Y446737D01*
X549193Y447763D01*
X549500Y448908D01*
Y450092D01*
X549193Y451237D01*
X548601Y452263D01*
X547763Y453101D01*
X546737Y453693D01*
X545592Y454000D01*
D02*
G37*
G36*
Y444000D02*
X544408D01*
X543263Y443693D01*
X542237Y443101D01*
X541399Y442263D01*
X540807Y441237D01*
X540500Y440092D01*
Y438908D01*
X540716Y438100D01*
X511558Y408942D01*
X511116Y408280D01*
X510961Y407500D01*
Y390963D01*
X510731Y390868D01*
X509791Y390146D01*
X509069Y389206D01*
X508616Y388112D01*
X508461Y386937D01*
Y386063D01*
X508616Y384888D01*
X509069Y383794D01*
X509791Y382854D01*
X510731Y382132D01*
X511825Y381679D01*
X513000Y381524D01*
X514175Y381679D01*
X515269Y382132D01*
X516209Y382854D01*
X516931Y383794D01*
X517384Y384888D01*
X517539Y386063D01*
Y386937D01*
X517384Y388112D01*
X516931Y389206D01*
X516209Y390146D01*
X515269Y390868D01*
X515039Y390963D01*
Y406655D01*
X543600Y435216D01*
X544408Y435000D01*
X545592D01*
X546737Y435307D01*
X547763Y435899D01*
X548601Y436737D01*
X549193Y437763D01*
X549500Y438908D01*
Y440092D01*
X549193Y441237D01*
X548601Y442263D01*
X547763Y443101D01*
X546737Y443693D01*
X545592Y444000D01*
D02*
G37*
G36*
Y434000D02*
X544408D01*
X543263Y433693D01*
X542237Y433101D01*
X541399Y432263D01*
X540807Y431237D01*
X540500Y430092D01*
Y428908D01*
X540716Y428100D01*
X521558Y408942D01*
X521116Y408280D01*
X520961Y407500D01*
Y390963D01*
X520731Y390868D01*
X519791Y390146D01*
X519069Y389206D01*
X518616Y388112D01*
X518461Y386937D01*
Y386063D01*
X518616Y384888D01*
X519069Y383794D01*
X519791Y382854D01*
X520731Y382132D01*
X521825Y381679D01*
X523000Y381524D01*
X524175Y381679D01*
X525269Y382132D01*
X526209Y382854D01*
X526931Y383794D01*
X527384Y384888D01*
X527539Y386063D01*
Y386937D01*
X527384Y388112D01*
X526931Y389206D01*
X526209Y390146D01*
X525269Y390868D01*
X525039Y390963D01*
Y406655D01*
X540000Y421616D01*
X540500Y421409D01*
Y417250D01*
X542750Y415000D01*
X547250D01*
X549500Y417250D01*
Y421750D01*
X547250Y424000D01*
X543091D01*
X542884Y424500D01*
X543600Y425216D01*
X544408Y425000D01*
X545592D01*
X546737Y425307D01*
X547763Y425899D01*
X548601Y426737D01*
X549193Y427763D01*
X549500Y428908D01*
Y430092D01*
X549193Y431237D01*
X548601Y432263D01*
X547763Y433101D01*
X546737Y433693D01*
X545592Y434000D01*
D02*
G37*
G36*
X485592D02*
X484408D01*
X483263Y433693D01*
X482237Y433101D01*
X481399Y432263D01*
X480807Y431237D01*
X480500Y430092D01*
Y428908D01*
X480716Y428100D01*
X475558Y422942D01*
X475116Y422280D01*
X474961Y421500D01*
Y251500D01*
X475116Y250720D01*
X475558Y250058D01*
X508058Y217558D01*
X508720Y217116D01*
X509500Y216961D01*
X547431D01*
X547864Y216210D01*
X548710Y215365D01*
X549746Y214766D01*
X550902Y214457D01*
X552098D01*
X553254Y214766D01*
X554290Y215365D01*
X555135Y216210D01*
X555734Y217246D01*
X556043Y218402D01*
Y219598D01*
X555734Y220754D01*
X555135Y221790D01*
X554290Y222636D01*
X553254Y223234D01*
X552098Y223543D01*
X550902D01*
X549746Y223234D01*
X548710Y222636D01*
X547864Y221790D01*
X547431Y221039D01*
X510345D01*
X479039Y252345D01*
Y420655D01*
X483600Y425216D01*
X484408Y425000D01*
X485592D01*
X486737Y425307D01*
X487763Y425899D01*
X488601Y426737D01*
X489193Y427763D01*
X489500Y428908D01*
Y430092D01*
X489193Y431237D01*
X488601Y432263D01*
X487763Y433101D01*
X486737Y433693D01*
X485592Y434000D01*
D02*
G37*
G36*
Y424000D02*
X484408D01*
X483263Y423693D01*
X482237Y423101D01*
X481399Y422263D01*
X480807Y421237D01*
X480500Y420092D01*
Y418908D01*
X480807Y417763D01*
X481399Y416737D01*
X482237Y415899D01*
X483263Y415307D01*
X484408Y415000D01*
X485592D01*
X486737Y415307D01*
X487763Y415899D01*
X488601Y416737D01*
X489193Y417763D01*
X489500Y418908D01*
Y420092D01*
X489193Y421237D01*
X488601Y422263D01*
X487763Y423101D01*
X486737Y423693D01*
X485592Y424000D01*
D02*
G37*
G36*
X543000Y291476D02*
X541825Y291321D01*
X540731Y290868D01*
X539791Y290146D01*
X539069Y289206D01*
X538616Y288112D01*
X538461Y286937D01*
Y286063D01*
X538616Y284888D01*
X539069Y283794D01*
X539791Y282854D01*
X540731Y282132D01*
X541825Y281679D01*
X543000Y281524D01*
X544175Y281679D01*
X545269Y282132D01*
X546209Y282854D01*
X546931Y283794D01*
X547384Y284888D01*
X547539Y286063D01*
Y286937D01*
X547384Y288112D01*
X546931Y289206D01*
X546209Y290146D01*
X545269Y290868D01*
X544175Y291321D01*
X543000Y291476D01*
D02*
G37*
G36*
X533000D02*
X531825Y291321D01*
X530731Y290868D01*
X529791Y290146D01*
X529069Y289206D01*
X528616Y288112D01*
X528461Y286937D01*
Y286063D01*
X528616Y284888D01*
X529069Y283794D01*
X529791Y282854D01*
X530731Y282132D01*
X531825Y281679D01*
X533000Y281524D01*
X534175Y281679D01*
X535269Y282132D01*
X536209Y282854D01*
X536931Y283794D01*
X537384Y284888D01*
X537539Y286063D01*
Y286937D01*
X537384Y288112D01*
X536931Y289206D01*
X536209Y290146D01*
X535269Y290868D01*
X534175Y291321D01*
X533000Y291476D01*
D02*
G37*
G36*
X523000D02*
X521825Y291321D01*
X520731Y290868D01*
X519791Y290146D01*
X519069Y289206D01*
X518616Y288112D01*
X518461Y286937D01*
Y286063D01*
X518616Y284888D01*
X519069Y283794D01*
X519791Y282854D01*
X520731Y282132D01*
X521825Y281679D01*
X523000Y281524D01*
X524175Y281679D01*
X525269Y282132D01*
X526209Y282854D01*
X526931Y283794D01*
X527384Y284888D01*
X527539Y286063D01*
Y286937D01*
X527384Y288112D01*
X526931Y289206D01*
X526209Y290146D01*
X525269Y290868D01*
X524175Y291321D01*
X523000Y291476D01*
D02*
G37*
G36*
X513000D02*
X511825Y291321D01*
X510731Y290868D01*
X509791Y290146D01*
X509069Y289206D01*
X508616Y288112D01*
X508461Y286937D01*
Y286063D01*
X508616Y284888D01*
X509069Y283794D01*
X509791Y282854D01*
X510731Y282132D01*
X511825Y281679D01*
X513000Y281524D01*
X514175Y281679D01*
X515269Y282132D01*
X516209Y282854D01*
X516931Y283794D01*
X517384Y284888D01*
X517539Y286063D01*
Y286937D01*
X517384Y288112D01*
X516931Y289206D01*
X516209Y290146D01*
X515269Y290868D01*
X514175Y291321D01*
X513000Y291476D01*
D02*
G37*
G36*
X503000D02*
X501825Y291321D01*
X500731Y290868D01*
X499791Y290146D01*
X499069Y289206D01*
X498616Y288112D01*
X498461Y286937D01*
Y286063D01*
X498616Y284888D01*
X499069Y283794D01*
X499791Y282854D01*
X500731Y282132D01*
X501825Y281679D01*
X503000Y281524D01*
X504175Y281679D01*
X505269Y282132D01*
X506209Y282854D01*
X506931Y283794D01*
X507384Y284888D01*
X507539Y286063D01*
Y286937D01*
X507384Y288112D01*
X506931Y289206D01*
X506209Y290146D01*
X505269Y290868D01*
X504175Y291321D01*
X503000Y291476D01*
D02*
G37*
G36*
X493000D02*
X491825Y291321D01*
X490731Y290868D01*
X489791Y290146D01*
X489069Y289206D01*
X488616Y288112D01*
X488461Y286937D01*
Y286063D01*
X488616Y284888D01*
X489069Y283794D01*
X489791Y282854D01*
X490731Y282132D01*
X491825Y281679D01*
X493000Y281524D01*
X494175Y281679D01*
X495269Y282132D01*
X496209Y282854D01*
X496931Y283794D01*
X497384Y284888D01*
X497539Y286063D01*
Y286937D01*
X497384Y288112D01*
X496931Y289206D01*
X496209Y290146D01*
X495269Y290868D01*
X494175Y291321D01*
X493000Y291476D01*
D02*
G37*
G36*
X546500Y269832D02*
X485852D01*
Y260500D01*
X493183D01*
Y252500D01*
X546500D01*
Y260500D01*
Y269832D01*
D02*
G37*
%LPD*%
D10*
X545000Y459500D02*
X555500Y449000D01*
Y416500D02*
Y449000D01*
X533000Y394000D02*
X555500Y416500D01*
X533000Y386500D02*
Y394000D01*
X477000Y421500D02*
X485000Y429500D01*
X477000Y251500D02*
Y421500D01*
Y251500D02*
X509500Y219000D01*
X470000Y424500D02*
X485000Y439500D01*
X470000Y243000D02*
Y424500D01*
Y243000D02*
X504000Y209000D01*
X559500Y234500D02*
Y329500D01*
X554000Y229000D02*
X559500Y234500D01*
X551500Y229000D02*
X554000D01*
X533000Y356000D02*
X559500Y329500D01*
X503000Y342500D02*
X551500Y294000D01*
Y239000D02*
Y294000D01*
X503000Y342500D02*
Y386500D01*
X509500Y219000D02*
X551500D01*
X504000Y209000D02*
X551500D01*
X513000Y386500D02*
Y407500D01*
X545000Y439500D01*
X523000Y386500D02*
Y407500D01*
X545000Y429500D01*
X503000Y386500D02*
Y427500D01*
X545000Y469500D01*
X533000Y356000D02*
Y386500D01*
D11*
X541834Y259832D02*
X544500D01*
Y255833D01*
X541834D01*
X544500Y257832D02*
X543167D01*
X540501Y255833D02*
X538502D01*
X537836Y256499D01*
X538502Y257166D01*
X539835D01*
X540501Y257832D01*
X539835Y258499D01*
X537836D01*
X536503Y254500D02*
Y258499D01*
X534503D01*
X533837Y257832D01*
Y256499D01*
X534503Y255833D01*
X536503D01*
X532504Y258499D02*
Y255833D01*
Y257166D01*
X531837Y257832D01*
X531171Y258499D01*
X530505D01*
X526506Y255833D02*
X527839D01*
X528505Y256499D01*
Y257832D01*
X527839Y258499D01*
X526506D01*
X525839Y257832D01*
Y257166D01*
X528505D01*
X524507Y255833D02*
X522507D01*
X521841Y256499D01*
X522507Y257166D01*
X523840D01*
X524507Y257832D01*
X523840Y258499D01*
X521841D01*
X520508Y255833D02*
X518508D01*
X517842Y256499D01*
X518508Y257166D01*
X519841D01*
X520508Y257832D01*
X519841Y258499D01*
X517842D01*
X515843Y255833D02*
X514510D01*
X513843Y256499D01*
Y257832D01*
X514510Y258499D01*
X515843D01*
X516509Y257832D01*
Y256499D01*
X515843Y255833D01*
X508512Y258499D02*
X507179Y255833D01*
X505846Y258499D01*
X504513Y255833D02*
X503180D01*
X503847D01*
Y259832D01*
X504513Y259165D01*
X501181Y255833D02*
Y256499D01*
X500514D01*
Y255833D01*
X501181D01*
X497848Y259165D02*
X497182Y259832D01*
X495849D01*
X495183Y259165D01*
Y256499D01*
X495849Y255833D01*
X497182D01*
X497848Y256499D01*
Y259165D01*
X541834Y267165D02*
X542501Y267832D01*
X543834D01*
X544500Y267165D01*
Y264499D01*
X543834Y263833D01*
X542501D01*
X541834Y264499D01*
X539835Y263833D02*
X538502D01*
X537836Y264499D01*
Y265832D01*
X538502Y266499D01*
X539835D01*
X540501Y265832D01*
Y264499D01*
X539835Y263833D01*
X536503D02*
Y266499D01*
X534503D01*
X533837Y265832D01*
Y263833D01*
X532504D02*
X530505D01*
X529838Y264499D01*
X530505Y265166D01*
X531837D01*
X532504Y265832D01*
X531837Y266499D01*
X529838D01*
X528505Y263833D02*
X527172D01*
X527839D01*
Y266499D01*
X528505D01*
X525173Y263833D02*
X523174D01*
X522507Y264499D01*
X523174Y265166D01*
X524507D01*
X525173Y265832D01*
X524507Y266499D01*
X522507D01*
X520508Y267165D02*
Y266499D01*
X521174D01*
X519841D01*
X520508D01*
Y264499D01*
X519841Y263833D01*
X515843D02*
X517175D01*
X517842Y264499D01*
Y265832D01*
X517175Y266499D01*
X515843D01*
X515176Y265832D01*
Y265166D01*
X517842D01*
X513843Y263833D02*
Y266499D01*
X511844D01*
X511177Y265832D01*
Y263833D01*
X509178Y267165D02*
Y266499D01*
X509844D01*
X508512D01*
X509178D01*
Y264499D01*
X508512Y263833D01*
X499848Y267165D02*
X500514Y267832D01*
X501847D01*
X502514Y267165D01*
Y264499D01*
X501847Y263833D01*
X500514D01*
X499848Y264499D01*
X498515Y266499D02*
Y264499D01*
X497848Y263833D01*
X495849D01*
Y266499D01*
X494516Y262500D02*
Y266499D01*
X492517D01*
X491850Y265832D01*
Y264499D01*
X492517Y263833D01*
X494516D01*
X490517D02*
X488518D01*
X487852Y264499D01*
X488518Y265166D01*
X489851D01*
X490517Y265832D01*
X489851Y266499D01*
X487852D01*
D12*
X545000Y479500D02*
D03*
Y469500D02*
D03*
Y459500D02*
D03*
Y449500D02*
D03*
Y439500D02*
D03*
Y429500D02*
D03*
X485000Y419500D02*
D03*
Y429500D02*
D03*
Y439500D02*
D03*
Y449500D02*
D03*
Y459500D02*
D03*
Y469500D02*
D03*
Y479500D02*
D03*
D13*
X545000Y419500D02*
D03*
D14*
X497500Y449500D02*
D03*
Y459500D02*
D03*
D15*
X523000Y386500D02*
D03*
X493000Y286500D02*
D03*
X523000D02*
D03*
X513000Y386500D02*
D03*
X503000D02*
D03*
X533000D02*
D03*
X513000Y286500D02*
D03*
X503000D02*
D03*
X543000D02*
D03*
X533000D02*
D03*
D16*
X551500Y239000D02*
D03*
D17*
Y229000D02*
D03*
Y219000D02*
D03*
Y209000D02*
D03*
M02*
